<svg xmlns="http://www.w3.org/2000/svg" viewBox="0 0 240 78" role="img" aria-label="Burgan logo">
  <g transform="translate(4 12)">
    <path d="M22 0c10 6 15 17 14 28-1 10-7 19-17 26-9-6-14-16-14-26C5 18 11 7 22 0Z" fill="#0a84cf"/>
    <path d="M18 12 31 0c5 7 7 16 5 24-3 8-9 15-18 20l-3-4c8-5 13-11 15-18 1-6 0-12-4-18L18 12Z" fill="#67c0ef"/>
  </g>
  <text x="51" y="28" font-family="Tahoma, Arial, sans-serif" font-size="17" font-weight="700" fill="#5c5c5c">بنك برقان</text>
  <text x="51" y="54" font-family="Arial, sans-serif" font-size="24" font-weight="700" fill="#0a63a9">BURGAN BANK</text>
</svg>
